name analog
datacolumns 19
datarows 63
range 0.6115 0.6425
endheader
time	ground_force_vx	ground_force_vy	ground_force_vz	ground_force_px	ground_force_py	ground_force_pz	l_ground_force_vx	l_ground_force_vy	l_ground_force_vz	l_ground_force_px	l_ground_force_py	l_ground_force_pz	ground_torque_x	ground_torque_y	ground_torque_z	l_ground_torque_x	l_ground_torque_y	l_ground_torque_z
0.6115	-0.0	-0.0	-0.0	-0.0	-0.0	-0.0	-11.474153518676758	4.047633171081543	-595.4728393554688	-0.0	-0.0	-0.0	-0.0	-0.0	-0.0	172515.8125	-1113.12890625	-3102.379150390625
0.612	-0.0	-0.0	-0.0	-0.0	-0.0	-0.0	-12.612234115600586	4.900308609008789	-601.9373779296875	-0.0	-0.0	-0.0	-0.0	-0.0	-0.0	174833.890625	-1212.4744873046875	-3700.37939453125
0.6125	-0.0	-0.0	-0.0	-0.0	-0.0	-0.0	-13.245099067687988	4.6692891120910645	-610.954833984375	-0.0	-0.0	-0.0	-0.0	-0.0	-0.0	176847.015625	-1662.317626953125	-3865.75244140625
0.613	-0.0	-0.0	-0.0	-0.0	-0.0	-0.0	-12.658705711364746	5.04971170425415	-617.2844848632812	-0.0	-0.0	-0.0	-0.0	-0.0	-0.0	178922.75	-2343.931396484375	-3715.72509765625
0.6135	-0.0	-0.0	-0.0	-0.0	-0.0	-0.0	-11.066635131835938	5.138110637664795	-621.4024658203125	-0.0	-0.0	-0.0	-0.0	-0.0	-0.0	180846.75	-2578.835693359375	-3374.171875
0.614	-0.0	-0.0	-0.0	-0.0	-0.0	-0.0	-10.4367036819458	5.153689861297607	-630.1572875976562	-0.0	-0.0	-0.0	-0.0	-0.0	-0.0	182424.9375	-3431.782470703125	-3188.985107421875
0.6145	-0.0	-0.0	-0.0	-0.0	-0.0	-0.0	-9.288543701171877	5.590240955352783	-635.6202392578125	-0.0	-0.0	-0.0	-0.0	-0.0	-0.0	183911.390625	-3938.316162109375	-3109.440673828125
0.615	-0.0	-0.0	-0.0	-0.0	-0.0	-0.0	-7.910992622375488	5.579929828643799	-640.2821655273438	-0.0	-0.0	-0.0	-0.0	-0.0	-0.0	185511.296875	-4483.8466796875	-2768.2255859375
0.6155	-0.0	-0.0	-0.0	-0.0	-0.0	-0.0	-6.387176513671875	5.621132850646973	-644.347412109375	-0.0	-0.0	-0.0	-0.0	-0.0	-0.0	186494.890625	-5304.6953125	-2386.802978515625
0.616	-0.0	-0.0	-0.0	-0.0	-0.0	-0.0	-4.330960750579834	4.769371032714844	-646.85302734375	-0.0	-0.0	-0.0	-0.0	-0.0	-0.0	187343.15625	-5628.50146484375	-1886.6214599609373
0.6165	-0.0	-0.0	-0.0	-0.0	-0.0	-0.0	-2.797869205474853	3.788886070251465	-647.9273071289062	-0.0	-0.0	-0.0	-0.0	-0.0	-0.0	187524.9375	-5998.224609375	-1338.2364501953125
0.617	-0.0	-0.0	-0.0	-0.0	-0.0	-0.0	-1.499416470527649	3.1550133228302	-648.5005493164062	-0.0	-0.0	-0.0	-0.0	-0.0	-0.0	187853.390625	-6179.7978515625	-1189.28173828125
0.6175	-0.0	-0.0	-0.0	-0.0	-0.0	-0.0	-1.6372467279434204	2.432732105255127	-649.29541015625	-0.0	-0.0	-0.0	-0.0	-0.0	-0.0	187371.625	-6007.16943359375	-1181.729248046875
0.618	-0.0	-0.0	-0.0	-0.0	-0.0	-0.0	-1.21786630153656	1.7181767225265503	-648.66015625	-0.0	-0.0	-0.0	-0.0	-0.0	-0.0	187350.953125	-5804.56298828125	-1192.39404296875
0.6185	-0.0	-0.0	-0.0	-0.0	-0.0	-0.0	-3.104877471923828	0.6904243230819702	-648.246826171875	-0.0	-0.0	-0.0	-0.0	-0.0	-0.0	187557.359375	-5602.20263671875	-1509.474853515625
0.619	-0.0	-0.0	-0.0	-0.0	-0.0	-0.0	-5.185043811798096	-0.8111212849617004	-649.2653198242188	-0.0	-0.0	-0.0	-0.0	-0.0	-0.0	187952.15625	-4960.7802734375	-2114.871337890625
0.6195	-0.0	-0.0	-0.0	-0.0	-0.0	-0.0	-7.813449382781982	-1.871045708656311	-649.293212890625	-0.0	-0.0	-0.0	-0.0	-0.0	-0.0	187489.265625	-4593.333984375	-2519.697021484375
0.62	-0.0	-0.0	-0.0	-0.0	-0.0	-0.0	-9.386910438537598	-2.9702157974243164	-650.8443603515625	-0.0	-0.0	-0.0	-0.0	-0.0	-0.0	187646.359375	-4109.09326171875	-3062.82666015625
0.6205	-0.0	-0.0	-0.0	-0.0	-0.0	-0.0	-10.234760284423828	-3.4609835147857666	-649.2920532226562	-0.0	-0.0	-0.0	-0.0	-0.0	-0.0	187481.703125	-3942.738037109375	-3189.791259765625
0.621	-0.0	-0.0	-0.0	-0.0	-0.0	-0.0	-10.966988563537598	-4.405396461486816	-650.6881713867188	-0.0	-0.0	-0.0	-0.0	-0.0	-0.0	187522.578125	-3847.7490234375	-3164.391845703125
0.6215	-0.0	-0.0	-0.0	-0.0	-0.0	-0.0	-11.033440589904783	-4.554141521453857	-650.6220092773438	-0.0	-0.0	-0.0	-0.0	-0.0	-0.0	187266.625	-3691.570556640625	-3309.10400390625
0.622	-0.0	-0.0	-0.0	-0.0	-0.0	-0.0	-12.036369323730469	-4.802655220031738	-650.206298828125	-0.0	-0.0	-0.0	-0.0	-0.0	-0.0	187515.375	-3677.958740234375	-3437.9130859375
0.6225	-0.0	-0.0	-0.0	-0.0	-0.0	-0.0	-11.565975189208984	-4.681049346923828	-650.4034423828125	-0.0	-0.0	-0.0	-0.0	-0.0	-0.0	187706.96875	-3510.310791015625	-3320.56103515625
0.623	-0.0	-0.0	-0.0	-0.0	-0.0	-0.0	-11.139439582824709	-4.289810657501221	-652.298828125	-0.0	-0.0	-0.0	-0.0	-0.0	-0.0	187683.53125	-3674.749267578125	-3248.03173828125
0.6235	-0.0	-0.0	-0.0	-0.0	-0.0	-0.0	-10.218667984008787	-3.423637866973877	-650.6693725585938	-0.0	-0.0	-0.0	-0.0	-0.0	-0.0	187810.71875	-3879.012939453125	-3026.84716796875
0.624	-0.0	-0.0	-0.0	-0.0	-0.0	-0.0	-9.546768188476562	-2.9653866291046143	-651.033935546875	-0.0	-0.0	-0.0	-0.0	-0.0	-0.0	187914.90625	-4154.87548828125	-2724.022705078125
0.6245	-0.0	-0.0	-0.0	-0.0	-0.0	-0.0	-7.874850749969482	-1.8717559576034544	-652.9266967773438	-0.0	-0.0	-0.0	-0.0	-0.0	-0.0	188257.09375	-4375.2509765625	-2449.947021484375
0.625	-0.0	-0.0	-0.0	-0.0	-0.0	-0.0	-7.025291442871094	-1.376018524169922	-652.4968872070312	-0.0	-0.0	-0.0	-0.0	-0.0	-0.0	188107.640625	-4701.99609375	-2158.3505859375
0.6255000000000001	-0.0	-0.0	-0.0	-0.0	-0.0	-0.0	-5.640429973602295	-1.41314697265625	-652.0797119140625	-0.0	-0.0	-0.0	-0.0	-0.0	-0.0	188003.03125	-5197.6806640625	-1867.447998046875
0.626	-0.0	-0.0	-0.0	-0.0	-0.0	-0.0	-3.3318867683410645	-1.008225679397583	-651.0907592773438	-0.0	-0.0	-0.0	-0.0	-0.0	-0.0	188192.734375	-5732.568359375	-1354.0892333984375
0.6265000000000001	-0.0	-0.0	-0.0	-0.0	-0.0	-0.0	-1.614144802093506	-1.167405366897583	-650.7503051757812	-0.0	-0.0	-0.0	-0.0	-0.0	-0.0	187935.71875	-6241.982421875	-979.7032470703124
0.627	-0.0	-0.0	-0.0	-0.0	-0.0	-0.0	0.01899915933609	-1.3942310810089111	-649.4219970703125	-0.0	-0.0	-0.0	-0.0	-0.0	-0.0	187763.59375	-6814.6640625	-735.5885620117188
0.6275000000000001	-0.0	-0.0	-0.0	-0.0	-0.0	-0.0	1.1007646322250366	-1.837340235710144	-647.1156005859375	-0.0	-0.0	-0.0	-0.0	-0.0	-0.0	187298.328125	-7186.3994140625	-491.8558349609375
0.628	-0.0	-0.0	-0.0	-0.0	-0.0	-0.0	1.9876611232757568	-1.872240662574768	-647.8871459960938	-0.0	-0.0	-0.0	-0.0	-0.0	-0.0	186932.046875	-7439.40087890625	-296.0030212402344
0.6285000000000001	-0.0	-0.0	-0.0	-0.0	-0.0	-0.0	2.3593993186950684	-2.1016476154327397	-645.0219116210938	-0.0	-0.0	-0.0	-0.0	-0.0	-0.0	186268.0625	-7302.455078125	-141.2775115966797
0.629	-0.0	-0.0	-0.0	-0.0	-0.0	-0.0	2.306288719177246	-2.366868495941162	-643.4160766601562	-0.0	-0.0	-0.0	-0.0	-0.0	-0.0	185951.34375	-7236.35498046875	-182.9293212890625
0.6295000000000001	-0.0	-0.0	-0.0	-0.0	-0.0	-0.0	1.3840049505233765	-2.6496505737304688	-644.1840209960938	-0.0	-0.0	-0.0	-0.0	-0.0	-0.0	185597.984375	-7136.18798828125	-509.8581237792969
0.63	-0.0	-0.0	-0.0	-0.0	-0.0	-0.0	0.5501164793968201	-2.5252363681793213	-641.3914794921875	-0.0	-0.0	-0.0	-0.0	-0.0	-0.0	185153.59375	-6961.4921875	-836.6295166015625
0.6305000000000001	-0.0	-0.0	-0.0	-0.0	-0.0	-0.0	-0.8871078491210938	-2.0670723915100098	-642.0193481445312	-0.0	-0.0	-0.0	-0.0	-0.0	-0.0	184970.15625	-6564.60595703125	-1216.802490234375
0.631	-0.0	-0.0	-0.0	-0.0	-0.0	-0.0	-2.1637916564941406	-2.13763427734375	-641.6039428710938	-0.0	-0.0	-0.0	-0.0	-0.0	-0.0	185052.296875	-5972.01806640625	-1645.218505859375
0.6315000000000001	-0.0	-0.0	-0.0	-0.0	-0.0	-0.0	-3.637142181396485	-1.697656273841858	-641.74072265625	-0.0	-0.0	-0.0	-0.0	-0.0	-0.0	184804.171875	-5716.3447265625	-2043.2724609375
0.632	-0.0	-0.0	-0.0	-0.0	-0.0	-0.0	-5.163352966308594	-1.714207649230957	-642.8519287109375	-0.0	-0.0	-0.0	-0.0	-0.0	-0.0	185096.890625	-5532.244140625	-2336.08740234375
0.6325000000000001	-0.0	-0.0	-0.0	-0.0	-0.0	-0.0	-6.491779804229736	-1.6599873304367063	-643.414794921875	-0.0	-0.0	-0.0	-0.0	-0.0	-0.0	185607.28125	-5465.3388671875	-2637.504638671875
0.633	-0.0	-0.0	-0.0	-0.0	-0.0	-0.0	-6.7028489112854	-2.0469658374786377	-643.907470703125	-0.0	-0.0	-0.0	-0.0	-0.0	-0.0	185774.484375	-5372.435546875	-2692.4970703125
0.6335000000000001	-0.0	-0.0	-0.0	-0.0	-0.0	-0.0	-6.387176513671875	-1.6415809392929075	-644.943359375	-0.0	-0.0	-0.0	-0.0	-0.0	-0.0	185889.15625	-5354.666015625	-2685.98291015625
0.634	-0.0	-0.0	-0.0	-0.0	-0.0	-0.0	-6.439066886901856	-1.6631081104278564	-646.2072143554688	-0.0	-0.0	-0.0	-0.0	-0.0	-0.0	186282.75	-5565.716796875	-2657.4140625
0.6345000000000001	-0.0	-0.0	-0.0	-0.0	-0.0	-0.0	-5.943622589111328	-1.9614770412445068	-646.8324584960938	-0.0	-0.0	-0.0	-0.0	-0.0	-0.0	186420.546875	-5666.48583984375	-2507.629150390625
0.635	-0.0	-0.0	-0.0	-0.0	-0.0	-0.0	-4.934767723083496	-1.5568991899490356	-646.060546875	-0.0	-0.0	-0.0	-0.0	-0.0	-0.0	186446.84375	-5729.81494140625	-2258.3720703125
0.6355000000000001	-0.0	-0.0	-0.0	-0.0	-0.0	-0.0	-3.791538953781128	-1.5527085065841677	-645.7279052734375	-0.0	-0.0	-0.0	-0.0	-0.0	-0.0	186397.265625	-6429.48828125	-2054.664794921875
0.636	-0.0	-0.0	-0.0	-0.0	-0.0	-0.0	-2.1150929927825928	-1.7617340087890625	-645.4528198242188	-0.0	-0.0	-0.0	-0.0	-0.0	-0.0	186064.6875	-6808.17578125	-1739.633056640625
0.6365000000000001	-0.0	-0.0	-0.0	-0.0	-0.0	-0.0	-0.3599499464035034	-1.0275821685791016	-642.734375	-0.0	-0.0	-0.0	-0.0	-0.0	-0.0	185838.0625	-7357.517578125	-1360.496337890625
0.637	-0.0	-0.0	-0.0	-0.0	-0.0	-0.0	0.8494387865066528	-0.971538543701172	-644.110595703125	-0.0	-0.0	-0.0	-0.0	-0.0	-0.0	185529.859375	-7933.5380859375	-1192.5023193359375
0.6375000000000001	-0.0	-0.0	-0.0	-0.0	-0.0	-0.0	1.545906901359558	-1.1293530464172363	-643.2861938476562	-0.0	-0.0	-0.0	-0.0	-0.0	-0.0	185014.09375	-8302.439453125	-1109.4046630859375
0.638	-0.0	-0.0	-0.0	-0.0	-0.0	-0.0	2.978201389312744	-1.2048799991607666	-641.4158935546875	-0.0	-0.0	-0.0	-0.0	-0.0	-0.0	184790.796875	-9058.955078125	-1023.7340698242188
0.6385000000000001	-0.0	-0.0	-0.0	-0.0	-0.0	-0.0	3.225160360336304	-1.1042773723602295	-639.720703125	-0.0	-0.0	-0.0	-0.0	-0.0	-0.0	184505.859375	-9594.1357421875	-1040.4168701171875
0.639	-0.0	-0.0	-0.0	-0.0	-0.0	-0.0	4.169406890869141	-1.0355336666107178	-640.1182861328125	-0.0	-0.0	-0.0	-0.0	-0.0	-0.0	184243.40625	-10073.33203125	-774.95751953125
0.6395000000000001	-0.0	-0.0	-0.0	-0.0	-0.0	-0.0	4.986990928649902	-1.5396738052368164	-639.2495727539062	-0.0	-0.0	-0.0	-0.0	-0.0	-0.0	184331.53125	-10539.1044921875	-695.9495849609375
0.64	-0.0	-0.0	-0.0	-0.0	-0.0	-0.0	5.233936309814453	-1.9622498750686648	-641.1181640625	-0.0	-0.0	-0.0	-0.0	-0.0	-0.0	184634.609375	-10754.6943359375	-735.8439331054688
0.6405	-0.0	-0.0	-0.0	-0.0	-0.0	-0.0	4.682337284088135	-1.9510037899017332	-641.194580078125	-0.0	-0.0	-0.0	-0.0	-0.0	-0.0	184634.125	-11045.609375	-807.2221069335938
0.641	-0.0	-0.0	-0.0	-0.0	-0.0	-0.0	3.174189805984497	-2.246668815612793	-642.1224365234375	-0.0	-0.0	-0.0	-0.0	-0.0	-0.0	184834.8125	-10714.1044921875	-1290.5576171875
0.6415	-0.0	-0.0	-0.0	-0.0	-0.0	-0.0	1.5275589227676392	-2.4148366451263428	-642.71142578125	-0.0	-0.0	-0.0	-0.0	-0.0	-0.0	185034.515625	-10443.203125	-1650.58642578125
0.642	-0.0	-0.0	-0.0	-0.0	-0.0	-0.0	0.7292255163192749	-2.54187536239624	-642.94189453125	-0.0	-0.0	-0.0	-0.0	-0.0	-0.0	185049.78125	-10441.88671875	-1816.167236328125
0.6425	-0.0	-0.0	-0.0	-0.0	-0.0	-0.0	0.34550341963768	-2.914615631103516	-642.90576171875	-0.0	-0.0	-0.0	-0.0	-0.0	-0.0	185048.0625	-10502.302734375	-2076.9775390625
